<?xml version="1.0" encoding="UTF-8"?>
<svg xmlns="http://www.w3.org/2000/svg" xmlns:xlink="http://www.w3.org/1999/xlink" width="48pt" height="48pt" viewBox="0 0 48 48" version="1.2">
<defs>
<clipPath id="clip1">
  <path d="M 2.164062 0 L 45.511719 0 L 45.511719 47.019531 L 2.164062 47.019531 Z M 2.164062 0 "/>
</clipPath>
</defs>
<g id="surface1">
<g clip-path="url(#clip1)" clip-rule="nonzero">
<path style=" stroke:none;fill-rule:nonzero;fill:rgb(0%,29.019165%,67.83905%);fill-opacity:1;" d="M 13.4375 5.878906 L 9.238281 5.878906 L 7.238281 8.398438 L 15.433594 8.398438 Z M 13.003906 0 L 9.667969 0 L 9.667969 4.199219 L 13.003906 4.199219 Z M 10.503906 36.105469 C 10.503906 37.03125 11.25 37.785156 12.167969 37.785156 L 12.167969 30.226562 L 13.835938 30.226562 L 13.835938 37.785156 L 15.503906 37.785156 L 15.503906 30.226562 L 17.171875 30.226562 L 17.171875 37.785156 L 18.835938 37.785156 L 18.835938 30.226562 L 20.503906 30.226562 L 20.503906 37.785156 C 21.421875 37.785156 22.171875 37.03125 22.171875 36.105469 L 22.171875 27.707031 C 22.171875 27.417969 22.320312 27.148438 22.566406 26.992188 C 22.8125 26.84375 23.117188 26.828125 23.378906 26.957031 L 26.761719 28.664062 C 27.242188 28.90625 27.828125 28.707031 28.070312 28.222656 C 28.214844 27.929688 28.238281 27.644531 28.148438 27.378906 C 28.0625 27.117188 27.882812 26.90625 27.636719 26.785156 L 22.628906 24.261719 C 22.351562 24.121094 22.171875 23.828125 22.171875 23.511719 L 22.171875 17.632812 L 10.503906 17.632812 Z M 8.835938 19.3125 L 8.835938 17.632812 L 2.167969 17.632812 L 2.167969 19.3125 Z M 16.335938 15.953125 L 16.335938 10.074219 L 6.335938 10.074219 L 6.335938 15.953125 Z M 45.507812 42.371094 C 44.621094 43.167969 43.457031 43.660156 42.175781 43.660156 L 40.871094 43.660156 C 39.957031 43.660156 39.046875 43.445312 38.230469 43.035156 C 37.046875 42.4375 35.632812 42.4375 34.449219 43.035156 C 33.636719 43.445312 32.722656 43.660156 31.8125 43.660156 L 30.507812 43.660156 C 29.222656 43.660156 28.058594 43.167969 27.171875 42.371094 L 27.171875 43.660156 C 27.171875 45.515625 28.667969 47.019531 30.507812 47.019531 L 31.8125 47.019531 C 32.460938 47.019531 33.117188 46.863281 33.703125 46.570312 C 34.53125 46.15625 35.433594 45.949219 36.339844 45.949219 C 37.246094 45.949219 38.152344 46.15625 38.976562 46.570312 C 39.5625 46.863281 40.21875 47.019531 40.871094 47.019531 L 42.175781 47.019531 C 44.015625 47.019531 45.507812 45.515625 45.507812 43.660156 Z M 4.78125 20.992188 L 7.902344 45.339844 L 25.796875 45.339844 C 25.613281 44.816406 25.503906 44.253906 25.503906 43.660156 L 25.503906 38.625 C 25.503906 35.847656 27.75 33.585938 30.507812 33.585938 L 31.277344 33.585938 L 32.894531 20.992188 L 23.839844 20.992188 L 23.839844 22.992188 L 28.382812 25.28125 C 29.027344 25.605469 29.507812 26.164062 29.734375 26.851562 C 29.960938 27.542969 29.902344 28.277344 29.582031 28.933594 C 28.90625 30.285156 27.316406 30.820312 26.015625 30.164062 L 23.839844 29.066406 L 23.839844 36.105469 C 23.839844 37.957031 22.34375 39.464844 20.503906 39.464844 L 12.167969 39.464844 C 10.332031 39.464844 8.835938 37.957031 8.835938 36.105469 L 8.835938 20.992188 Z M 31.339844 15.953125 L 31.339844 13.78125 L 27.660156 10.074219 L 23.351562 10.074219 L 21.339844 12.101562 L 21.339844 15.953125 Z M 23.839844 19.3125 L 35.507812 19.3125 L 35.507812 17.632812 L 23.839844 17.632812 Z M 27.171875 8.398438 L 27.171875 6.71875 L 23.839844 6.71875 L 23.839844 8.398438 Z M 34.671875 36.945312 L 33.007812 36.945312 L 33.007812 38.625 L 34.671875 38.625 Z M 38.007812 39.464844 L 39.675781 39.464844 L 39.675781 37.785156 L 38.007812 37.785156 Z M 41.339844 38.625 L 43.007812 38.625 L 43.007812 36.945312 L 41.339844 36.945312 Z M 31.339844 37.785156 L 29.671875 37.785156 L 29.671875 39.464844 L 31.339844 39.464844 Z M 33.703125 35.714844 C 35.355469 36.546875 37.328125 36.546875 38.976562 35.714844 C 39.5625 35.417969 40.21875 35.265625 40.871094 35.265625 L 42.175781 35.265625 C 44.015625 35.265625 45.507812 36.769531 45.507812 38.625 C 45.507812 40.476562 44.015625 41.984375 42.175781 41.984375 L 40.871094 41.984375 C 40.21875 41.984375 39.5625 41.828125 38.976562 41.53125 C 38.152344 41.117188 37.246094 40.910156 36.339844 40.910156 C 35.433594 40.910156 34.53125 41.117188 33.703125 41.53125 C 33.117188 41.828125 32.460938 41.984375 31.8125 41.984375 L 30.507812 41.984375 C 28.667969 41.984375 27.171875 40.476562 27.171875 38.625 C 27.171875 36.769531 28.667969 35.265625 30.507812 35.265625 L 31.8125 35.265625 C 32.460938 35.265625 33.117188 35.417969 33.703125 35.714844 Z M 27.710938 5.039062 L 31.339844 2.117188 L 31.339844 0 L 27.171875 0 C 24.238281 0 21.804688 2.195312 21.398438 5.039062 Z M 34.671875 1.679688 L 33.007812 1.679688 L 33.007812 0 L 34.671875 0 L 34.671875 1.679688 "/>
</g>
</g>
</svg>
