<?xml version="1.0" encoding="UTF-8"?>
<svg xmlns="http://www.w3.org/2000/svg" xmlns:xlink="http://www.w3.org/1999/xlink" width="48pt" height="48pt" viewBox="0 0 48 48" version="1.2">
<defs>
<clipPath id="clip1">
  <path d="M 1.261719 0.769531 L 46.8125 0.769531 L 46.8125 46.324219 L 1.261719 46.324219 Z M 1.261719 0.769531 "/>
</clipPath>
</defs>
<g id="surface1">
<g clip-path="url(#clip1)" clip-rule="nonzero">
<path style=" stroke:none;fill-rule:nonzero;fill:rgb(100%,100%,100%);fill-opacity:1;" d="M 24.015625 0.757812 C 11.441406 0.757812 1.246094 10.953125 1.246094 23.527344 C 1.246094 36.101562 11.441406 46.296875 24.015625 46.296875 C 36.59375 46.296875 46.785156 36.101562 46.785156 23.527344 C 46.785156 10.953125 36.59375 0.757812 24.015625 0.757812 Z M 12.816406 15.253906 L 35.21875 15.253906 C 35.347656 15.253906 35.476562 15.265625 35.601562 15.285156 L 24.015625 22.507812 L 12.433594 15.285156 C 12.558594 15.265625 12.683594 15.253906 12.816406 15.253906 Z M 37.65625 30.574219 C 37.65625 31.921875 36.566406 33.015625 35.21875 33.015625 L 12.816406 33.015625 C 11.46875 33.015625 10.375 31.921875 10.375 30.574219 L 10.375 17.691406 C 10.375 17.550781 10.390625 17.410156 10.414062 17.273438 L 23.289062 25.300781 C 23.304688 25.3125 23.320312 25.320312 23.335938 25.328125 C 23.355469 25.335938 23.371094 25.347656 23.386719 25.355469 C 23.480469 25.402344 23.574219 25.441406 23.667969 25.464844 C 23.679688 25.464844 23.6875 25.46875 23.699219 25.472656 C 23.804688 25.496094 23.910156 25.511719 24.015625 25.511719 C 24.015625 25.511719 24.019531 25.511719 24.019531 25.511719 C 24.125 25.511719 24.230469 25.496094 24.335938 25.472656 C 24.347656 25.46875 24.355469 25.464844 24.367188 25.464844 C 24.460938 25.4375 24.554688 25.402344 24.644531 25.355469 C 24.664062 25.347656 24.679688 25.335938 24.699219 25.328125 C 24.714844 25.320312 24.730469 25.3125 24.746094 25.300781 L 37.617188 17.273438 C 37.644531 17.410156 37.65625 17.550781 37.65625 17.691406 Z M 37.65625 30.574219 "/>
</g>
</g>
</svg>
