<?xml version="1.0" encoding="UTF-8"?>
<svg xmlns="http://www.w3.org/2000/svg" xmlns:xlink="http://www.w3.org/1999/xlink" width="48pt" height="48pt" viewBox="0 0 48 48" version="1.2">
<defs>
<clipPath id="clip1">
  <path d="M 19 8.609375 L 27 8.609375 L 27 12 L 19 12 Z M 19 8.609375 "/>
</clipPath>
<clipPath id="clip2">
  <path d="M 0.488281 15 L 21 15 L 21 38.734375 L 0.488281 38.734375 Z M 0.488281 15 "/>
</clipPath>
<clipPath id="clip3">
  <path d="M 27.339844 23.59375 L 40.617188 23.59375 L 40.617188 38.703125 L 27.339844 38.703125 Z M 27.339844 23.59375 "/>
</clipPath>
<clipPath id="clip4">
  <path d="M 32 18 L 47.507812 18 L 47.507812 32 L 32 32 Z M 32 18 "/>
</clipPath>
</defs>
<g id="surface1">
<path style=" stroke:none;fill-rule:nonzero;fill:rgb(0%,29.019165%,67.83905%);fill-opacity:1;" d="M 15.4375 13.988281 L 16.804688 14.636719 C 16.90625 14.683594 17.015625 14.660156 17.050781 14.582031 L 17.957031 12.621094 C 17.992188 12.542969 17.941406 12.441406 17.839844 12.394531 L 16.472656 11.75 C 16.375 11.703125 16.261719 11.726562 16.226562 11.804688 L 15.320312 13.761719 C 15.285156 13.839844 15.335938 13.941406 15.4375 13.988281 "/>
<path style=" stroke:none;fill-rule:nonzero;fill:rgb(0%,29.019165%,67.83905%);fill-opacity:1;" d="M 15.902344 14.789062 C 14.132812 13.953125 12.226562 14.070312 10.933594 15.082031 L 18.863281 18.832031 C 18.800781 17.179688 17.667969 15.625 15.902344 14.789062 "/>
<g clip-path="url(#clip1)" clip-rule="nonzero">
<path style=" stroke:none;fill-rule:nonzero;fill:rgb(0%,29.019165%,67.83905%);fill-opacity:1;" d="M 26.730469 9.570312 L 26.734375 9.570312 L 26.734375 9.566406 C 26.644531 9.257812 26.539062 8.945312 26.425781 8.644531 L 26.425781 8.640625 L 19.054688 11.667969 C 19.082031 11.730469 19.109375 11.796875 19.136719 11.863281 L 26.730469 9.570312 "/>
</g>
<path style=" stroke:none;fill-rule:nonzero;fill:rgb(0%,29.019165%,67.83905%);fill-opacity:1;" d="M 18.746094 14.394531 L 26.066406 21.148438 L 26.070312 21.148438 C 26.285156 20.90625 26.492188 20.65625 26.6875 20.402344 L 26.6875 20.398438 L 18.882812 14.203125 C 18.839844 14.269531 18.796875 14.332031 18.746094 14.394531 "/>
<path style=" stroke:none;fill-rule:nonzero;fill:rgb(0%,29.019165%,67.83905%);fill-opacity:1;" d="M 19.175781 13.597656 L 27.5625 17.230469 L 27.566406 17.230469 C 27.691406 16.929688 27.804688 16.621094 27.902344 16.3125 L 27.90625 16.3125 L 19.234375 13.378906 C 19.21875 13.453125 19.199219 13.523438 19.175781 13.597656 "/>
<path style=" stroke:none;fill-rule:nonzero;fill:rgb(0%,29.019165%,67.83905%);fill-opacity:1;" d="M 25.878906 18.535156 C 26.054688 18.261719 26.21875 17.976562 26.367188 17.691406 L 26.367188 17.6875 L 19.097656 13.804688 C 19.066406 13.875 19.035156 13.941406 18.996094 14.007812 L 25.878906 18.535156 "/>
<path style=" stroke:none;fill-rule:nonzero;fill:rgb(0%,29.019165%,67.83905%);fill-opacity:1;" d="M 19.285156 12.484375 C 19.292969 12.554688 19.300781 12.628906 19.300781 12.703125 L 27.546875 13.191406 L 27.550781 13.191406 L 27.550781 13.1875 C 27.566406 12.867188 27.574219 12.539062 27.566406 12.214844 L 19.285156 12.484375 "/>
<path style=" stroke:none;fill-rule:nonzero;fill:rgb(0%,29.019165%,67.83905%);fill-opacity:1;" d="M 18.429688 14.730469 L 23.433594 21.316406 C 23.6875 21.121094 23.933594 20.90625 24.167969 20.6875 L 18.597656 14.566406 C 18.542969 14.625 18.488281 14.679688 18.429688 14.730469 "/>
<path style=" stroke:none;fill-rule:nonzero;fill:rgb(0%,29.019165%,67.83905%);fill-opacity:1;" d="M 19.253906 12.273438 L 28.773438 11.152344 L 28.773438 11.148438 C 28.738281 10.828125 28.6875 10.5 28.625 10.183594 L 19.199219 12.0625 C 19.222656 12.132812 19.238281 12.203125 19.253906 12.273438 "/>
<path style=" stroke:none;fill-rule:nonzero;fill:rgb(0%,29.019165%,67.83905%);fill-opacity:1;" d="M 19.277344 13.160156 L 29.675781 15.503906 C 29.75 15.191406 29.808594 14.871094 29.855469 14.554688 C 29.859375 14.539062 29.859375 14.523438 29.863281 14.511719 L 19.300781 12.925781 C 19.296875 13.003906 19.289062 13.082031 19.277344 13.160156 "/>
<path style=" stroke:none;fill-rule:nonzero;fill:rgb(0%,29.019165%,67.83905%);fill-opacity:1;" d="M 11.199219 33.40625 L 16.011719 23 L 9.597656 19.96875 L 4.785156 30.371094 L 11.199219 33.40625 "/>
<g clip-path="url(#clip2)" clip-rule="nonzero">
<path style=" stroke:none;fill-rule:nonzero;fill:rgb(0%,29.019165%,67.83905%);fill-opacity:1;" d="M 11.496094 34.226562 L 3.972656 30.667969 L 9.304688 19.144531 L 16.824219 22.703125 Z M 19.332031 19.710938 L 9.964844 15.28125 C 9.289062 14.960938 8.492188 15.246094 8.183594 15.914062 L 0.804688 31.871094 C 0.496094 32.542969 0.789062 33.34375 1.464844 33.664062 L 10.832031 38.089844 C 11.507812 38.410156 12.304688 38.125 12.617188 37.457031 L 19.996094 21.5 C 20.304688 20.828125 20.007812 20.027344 19.332031 19.710938 "/>
</g>
<path style=" stroke:none;fill-rule:nonzero;fill:rgb(0%,29.019165%,67.83905%);fill-opacity:1;" d="M 30.261719 21.308594 C 29.851562 21.722656 29.632812 22.296875 29.566406 22.964844 L 28.992188 22.964844 C 28.96875 22.90625 28.933594 22.847656 28.886719 22.796875 C 28.703125 22.613281 28.40625 22.613281 28.222656 22.796875 C 28.039062 22.984375 28.039062 23.28125 28.222656 23.46875 C 28.40625 23.652344 28.703125 23.652344 28.886719 23.46875 C 28.925781 23.425781 28.957031 23.378906 28.980469 23.328125 L 29.542969 23.328125 C 29.535156 23.753906 29.578125 24.207031 29.667969 24.683594 C 30.496094 24.476562 31.378906 23.972656 32.136719 23.207031 C 32.914062 22.421875 33.414062 21.507812 33.609375 20.652344 C 33.148438 20.566406 32.699219 20.527344 32.28125 20.539062 L 32.28125 19.992188 C 32.328125 19.96875 32.378906 19.9375 32.417969 19.898438 C 32.601562 19.710938 32.601562 19.410156 32.417969 19.226562 C 32.234375 19.039062 31.9375 19.039062 31.753906 19.226562 C 31.570312 19.410156 31.570312 19.710938 31.753906 19.898438 C 31.804688 19.945312 31.859375 19.980469 31.921875 20.003906 L 31.921875 20.566406 C 31.261719 20.640625 30.691406 20.875 30.261719 21.308594 "/>
<g clip-path="url(#clip3)" clip-rule="nonzero">
<path style=" stroke:none;fill-rule:nonzero;fill:rgb(0%,29.019165%,67.83905%);fill-opacity:1;" d="M 29.75 25.28125 C 29.867188 26.167969 30.125 27.105469 30.480469 28.015625 L 28.832031 28.246094 L 28.277344 27.054688 C 28.164062 26.8125 27.878906 26.707031 27.640625 26.820312 C 27.402344 26.9375 27.300781 27.226562 27.414062 27.464844 L 28.117188 28.980469 C 28.207031 29.171875 28.410156 29.28125 28.617188 29.253906 L 30.878906 28.9375 C 31.105469 29.414062 31.351562 29.871094 31.617188 30.300781 L 30.25 31.074219 L 28.734375 30.945312 C 28.46875 30.921875 28.238281 31.117188 28.214844 31.386719 C 28.191406 31.652344 28.386719 31.886719 28.652344 31.910156 L 30.316406 32.050781 C 30.410156 32.058594 30.507812 32.039062 30.589844 31.992188 L 32.15625 31.105469 C 32.425781 31.476562 32.707031 31.816406 32.988281 32.105469 L 31.484375 33.625 C 31.40625 33.703125 31.359375 33.808594 31.347656 33.917969 L 31.179688 35.632812 C 31.152344 35.898438 31.34375 36.132812 31.609375 36.160156 C 31.757812 36.175781 31.894531 36.121094 31.996094 36.019531 C 32.070312 35.945312 32.121094 35.84375 32.132812 35.726562 L 32.285156 34.1875 L 33.714844 32.742188 C 34.097656 33.03125 34.503906 33.265625 34.917969 33.441406 L 34.109375 35.898438 C 34.078125 35.988281 34.074219 36.089844 34.101562 36.183594 L 34.722656 38.355469 C 34.796875 38.609375 35.0625 38.757812 35.316406 38.683594 C 35.398438 38.660156 35.464844 38.617188 35.523438 38.5625 C 35.640625 38.441406 35.695312 38.261719 35.644531 38.085938 L 35.0625 36.058594 L 35.828125 33.738281 C 37.460938 34.109375 39.167969 33.671875 40.527344 32.535156 L 32.410156 23.609375 C 31.570312 24.441406 30.625 25.015625 29.75 25.28125 "/>
</g>
<g clip-path="url(#clip4)" clip-rule="nonzero">
<path style=" stroke:none;fill-rule:nonzero;fill:rgb(0%,29.019165%,67.83905%);fill-opacity:1;" d="M 47.113281 25.824219 L 44.96875 25.195312 C 44.875 25.167969 44.777344 25.171875 44.683594 25.203125 L 42.257812 26.019531 C 42.082031 25.601562 41.851562 25.195312 41.5625 24.804688 L 42.992188 23.359375 L 44.515625 23.203125 C 44.632812 23.191406 44.730469 23.140625 44.808594 23.066406 C 44.90625 22.964844 44.960938 22.824219 44.945312 22.675781 C 44.917969 22.410156 44.683594 22.214844 44.421875 22.242188 L 42.726562 22.414062 C 42.617188 22.421875 42.515625 22.472656 42.4375 22.550781 L 40.933594 24.070312 C 40.648438 23.785156 40.316406 23.5 39.949219 23.222656 L 40.824219 21.648438 C 40.867188 21.5625 40.890625 21.464844 40.882812 21.367188 L 40.742188 19.683594 C 40.71875 19.417969 40.488281 19.222656 40.222656 19.242188 C 39.960938 19.265625 39.765625 19.5 39.785156 19.765625 L 39.914062 21.304688 L 39.15625 22.667969 C 38.734375 22.394531 38.277344 22.136719 37.804688 21.902344 L 38.113281 19.648438 C 38.140625 19.441406 38.03125 19.234375 37.84375 19.144531 L 36.347656 18.429688 C 36.109375 18.316406 35.824219 18.421875 35.710938 18.664062 C 35.597656 18.90625 35.699219 19.195312 35.9375 19.308594 L 37.117188 19.871094 L 36.894531 21.488281 C 36.003906 21.121094 35.082031 20.851562 34.203125 20.738281 C 33.945312 21.640625 33.375 22.617188 32.535156 23.484375 L 41.363281 31.691406 C 42.484375 30.320312 42.917969 28.59375 42.550781 26.941406 L 44.847656 26.167969 L 46.847656 26.753906 C 47.019531 26.804688 47.199219 26.753906 47.320312 26.632812 C 47.375 26.578125 47.417969 26.503906 47.441406 26.425781 C 47.515625 26.167969 47.367188 25.898438 47.113281 25.824219 "/>
</g>
</g>
</svg>
