<?xml version="1.0" encoding="UTF-8"?>
<svg xmlns="http://www.w3.org/2000/svg" xmlns:xlink="http://www.w3.org/1999/xlink" width="48pt" height="48pt" viewBox="0 0 48 48" version="1.2">
<defs>
<clipPath id="clip1">
  <path d="M 1.046875 0 L 46.597656 0 L 46.597656 47.019531 L 1.046875 47.019531 Z M 1.046875 0 "/>
</clipPath>
</defs>
<g id="surface1">
<g clip-path="url(#clip1)" clip-rule="nonzero">
<path style=" stroke:none;fill-rule:nonzero;fill:rgb(0%,29.019165%,67.83905%);fill-opacity:1;" d="M 24.636719 0 C 24.199219 0.0195312 23.804688 0.296875 23.640625 0.742188 C 22.714844 3.273438 22.863281 5.988281 23.972656 8.40625 C 25.078125 10.824219 27.109375 12.683594 29.582031 13.613281 C 29.695312 13.652344 29.839844 13.691406 29.953125 13.691406 C 30.394531 13.691406 30.839844 13.390625 30.988281 12.945312 C 31.910156 10.417969 31.761719 7.699219 30.652344 5.28125 C 29.546875 2.828125 27.554688 1.003906 25.078125 0.0742188 C 24.929688 0.0195312 24.78125 -0.00390625 24.636719 0 Z M 8.5 0.128906 C 8.308594 0.128906 8.113281 0.1875 7.949219 0.296875 C 3.738281 2.789062 1.117188 7.402344 1.117188 12.3125 L 1.117188 26.1875 C 1.117188 26.820312 1.597656 27.304688 2.226562 27.304688 L 7.394531 27.304688 L 7.394531 30.839844 C 5.878906 31.320312 4.808594 32.734375 4.808594 34.371094 L 4.808594 43.300781 C 4.808594 45.347656 6.472656 47.019531 8.5 47.019531 C 10.53125 47.019531 12.195312 45.347656 12.195312 43.300781 L 12.195312 34.371094 C 12.195312 32.699219 11.121094 31.285156 9.609375 30.839844 L 9.609375 27.304688 L 14.777344 27.304688 C 15.40625 27.304688 15.886719 26.820312 15.886719 26.1875 L 15.886719 12.3125 C 15.886719 7.402344 13.265625 2.789062 9.054688 0.296875 C 8.890625 0.1875 8.695312 0.128906 8.5 0.128906 Z M 8.5 2.566406 C 11.714844 4.722656 13.671875 8.40625 13.671875 12.3125 L 13.671875 25.074219 L 9.609375 25.074219 L 9.609375 22.46875 C 9.609375 21.835938 9.128906 21.351562 8.5 21.351562 C 7.875 21.351562 7.394531 21.835938 7.394531 22.46875 L 7.394531 25.074219 L 3.332031 25.074219 L 3.332031 12.3125 C 3.332031 8.40625 5.289062 4.722656 8.5 2.566406 Z M 43.234375 3.484375 C 41.207031 3.523438 39.246094 4.15625 37.558594 5.355469 C 35.304688 6.957031 33.792969 9.335938 33.3125 12.050781 C 33.238281 12.425781 33.3125 12.832031 33.570312 13.167969 C 33.792969 13.503906 34.125 13.6875 34.492188 13.765625 C 35.085938 13.875 35.710938 13.914062 36.304688 13.914062 C 38.40625 13.914062 40.4375 13.28125 42.210938 12.015625 C 44.460938 10.417969 45.976562 8.035156 46.457031 5.320312 C 46.53125 4.949219 46.417969 4.574219 46.199219 4.242188 C 45.976562 3.90625 45.644531 3.71875 45.273438 3.644531 C 44.589844 3.523438 43.910156 3.472656 43.234375 3.484375 Z M 43.378906 5.707031 C 43.613281 5.703125 43.851562 5.710938 44.09375 5.730469 C 43.058594 9.484375 39.515625 11.976562 35.675781 11.679688 C 36.644531 8.160156 39.820312 5.746094 43.378906 5.707031 Z M 22.542969 13.207031 C 21.175781 13.21875 19.804688 13.695312 18.691406 14.65625 C 18.46875 14.804688 18.324219 15.066406 18.285156 15.363281 C 18.25 15.660156 18.359375 15.957031 18.542969 16.183594 C 19.761719 17.632812 21.460938 18.375 23.195312 18.375 C 24.5625 18.375 25.964844 17.894531 27.109375 16.960938 C 27.332031 16.777344 27.480469 16.515625 27.515625 16.21875 C 27.550781 15.921875 27.441406 15.625 27.257812 15.402344 C 26.054688 13.9375 24.300781 13.1875 22.542969 13.207031 Z M 30.726562 14.730469 C 30.101562 14.730469 29.621094 15.253906 29.65625 15.882812 C 29.695312 17.371094 29.546875 18.824219 29.175781 20.238281 L 19.207031 20.238281 C 18.582031 20.238281 18.101562 20.71875 18.101562 21.351562 C 18.101562 21.984375 18.582031 22.46875 19.207031 22.46875 L 43.207031 22.46875 L 43.207031 25.074219 L 19.0625 25.074219 C 18.46875 25.148438 18.027344 25.707031 18.101562 26.300781 L 20.316406 46.015625 C 20.390625 46.574219 20.871094 47.019531 21.425781 47.019531 L 38.40625 47.019531 C 38.960938 47.019531 39.441406 46.613281 39.515625 46.015625 L 41.617188 27.304688 L 44.316406 27.304688 C 44.941406 27.304688 45.421875 26.820312 45.421875 26.1875 L 45.421875 21.351562 C 45.421875 20.71875 44.941406 20.238281 44.316406 20.238281 L 31.464844 20.238281 C 31.761719 18.785156 31.910156 17.296875 31.871094 15.808594 C 31.871094 15.175781 31.316406 14.695312 30.726562 14.730469 Z M 20.464844 27.304688 L 39.402344 27.304688 L 37.410156 44.789062 L 22.421875 44.789062 Z M 8.5 32.882812 C 9.3125 32.882812 9.976562 33.554688 9.976562 34.371094 L 9.976562 43.300781 C 9.976562 44.117188 9.3125 44.789062 8.5 44.789062 C 7.6875 44.789062 7.023438 44.117188 7.023438 43.300781 L 7.023438 34.371094 C 7.023438 33.554688 7.6875 32.882812 8.5 32.882812 Z M 8.5 32.882812 "/>
</g>
</g>
</svg>
