<?xml version="1.0" encoding="UTF-8"?>
<svg xmlns="http://www.w3.org/2000/svg" xmlns:xlink="http://www.w3.org/1999/xlink" width="48pt" height="48pt" viewBox="0 0 48 48" version="1.2">
<defs>
<clipPath id="clip1">
  <path d="M 0.488281 0 L 46.777344 0 L 46.777344 46.285156 L 0.488281 46.285156 Z M 0.488281 0 "/>
</clipPath>
<clipPath id="clip2">
  <path d="M 0.488281 37 L 5 37 L 5 39 L 0.488281 39 Z M 0.488281 37 "/>
</clipPath>
<clipPath id="clip3">
  <path d="M 35 0 L 46.777344 0 L 46.777344 11 L 35 11 Z M 35 0 "/>
</clipPath>
</defs>
<g id="surface1">
<g clip-path="url(#clip1)" clip-rule="nonzero">
<path style=" stroke:none;fill-rule:nonzero;fill:rgb(0%,29.019165%,67.83905%);fill-opacity:1;" d="M 44.460938 40.113281 L 11.289062 40.113281 C 10.011719 40.113281 8.976562 39.074219 8.976562 37.800781 L 8.976562 4.628906 C 8.976562 3.777344 8.285156 3.085938 7.433594 3.085938 L 2.804688 3.085938 C 2.378906 3.085938 2.03125 2.738281 2.03125 2.3125 C 2.03125 1.890625 2.378906 1.542969 2.804688 1.542969 L 8.203125 1.542969 C 9.480469 1.542969 10.519531 2.582031 10.519531 3.855469 L 10.519531 37.027344 C 10.519531 37.878906 11.210938 38.570312 12.0625 38.570312 L 44.460938 38.570312 C 44.886719 38.570312 45.234375 38.917969 45.234375 39.34375 C 45.234375 39.769531 44.886719 40.113281 44.460938 40.113281 Z M 39.0625 44.742188 C 38.210938 44.742188 37.519531 44.050781 37.519531 43.199219 C 37.519531 42.347656 38.210938 41.65625 39.0625 41.65625 C 39.910156 41.65625 40.605469 42.347656 40.605469 43.199219 C 40.605469 44.050781 39.910156 44.742188 39.0625 44.742188 Z M 15.917969 44.742188 C 15.066406 44.742188 14.375 44.050781 14.375 43.199219 C 14.375 42.347656 15.066406 41.65625 15.917969 41.65625 C 16.769531 41.65625 17.460938 42.347656 17.460938 43.199219 C 17.460938 44.050781 16.769531 44.742188 15.917969 44.742188 Z M 15.167969 9.265625 C 15.167969 9.261719 15.167969 9.261719 15.167969 9.257812 L 33.660156 9.257812 C 33.660156 9.261719 33.660156 9.261719 33.660156 9.265625 L 32.503906 12.277344 L 32.648438 12.980469 C 32.917969 14.304688 33.140625 15.652344 33.304688 17 C 32.199219 17.171875 31.347656 18.128906 31.347656 19.285156 L 31.347656 36.257812 C 31.347656 36.527344 31.394531 36.789062 31.480469 37.027344 L 15.167969 37.027344 C 15.167969 37.027344 15.167969 37.023438 15.167969 37.019531 L 16.324219 34.007812 L 16.179688 33.304688 C 14.792969 26.5625 14.792969 19.722656 16.179688 12.980469 L 16.324219 12.277344 Z M 35.976562 30.855469 L 35.976562 28.542969 L 37.519531 28.542969 L 37.519531 30.855469 Z M 39.0625 32.398438 L 39.0625 28.542969 L 43.691406 28.542969 L 43.691406 36.257812 C 43.691406 36.683594 43.34375 37.027344 42.917969 37.027344 L 33.660156 37.027344 C 33.234375 37.027344 32.890625 36.683594 32.890625 36.257812 L 32.890625 28.542969 L 34.433594 28.542969 L 34.433594 32.398438 Z M 34.433594 18.515625 L 34.433594 22.371094 L 39.0625 22.371094 L 39.0625 18.515625 L 42.917969 18.515625 C 43.34375 18.515625 43.691406 18.859375 43.691406 19.285156 L 43.691406 27 L 32.890625 27 L 32.890625 19.285156 C 32.890625 18.859375 33.234375 18.515625 33.660156 18.515625 Z M 35.976562 18.515625 L 37.519531 18.515625 L 37.519531 20.828125 L 35.976562 20.828125 Z M 45.070312 37.109375 C 45.175781 36.847656 45.234375 36.558594 45.234375 36.257812 L 45.234375 19.285156 C 45.234375 18.007812 44.195312 16.972656 42.917969 16.972656 L 34.855469 16.972656 C 34.683594 15.53125 34.449219 14.085938 34.160156 12.667969 L 34.105469 12.410156 L 35.097656 9.820312 C 35.285156 9.335938 35.222656 8.796875 34.929688 8.371094 C 34.648438 7.960938 34.183594 7.714844 33.691406 7.714844 L 15.136719 7.714844 C 14.644531 7.714844 14.179688 7.960938 13.898438 8.371094 C 13.605469 8.796875 13.542969 9.335938 13.730469 9.820312 L 14.722656 12.410156 L 14.667969 12.667969 C 13.238281 19.617188 13.238281 26.667969 14.667969 33.617188 L 14.722656 33.875 L 13.730469 36.464844 C 13.660156 36.648438 13.625 36.839844 13.625 37.027344 L 12.0625 37.027344 L 12.0625 3.855469 C 12.0625 1.730469 10.332031 0 8.203125 0 L 2.804688 0 C 1.527344 0 0.488281 1.039062 0.488281 2.3125 C 0.488281 3.589844 1.527344 4.628906 2.804688 4.628906 L 7.433594 4.628906 L 7.433594 37.800781 C 7.433594 39.925781 9.164062 41.65625 11.289062 41.65625 L 13.246094 41.65625 C 12.984375 42.113281 12.832031 42.636719 12.832031 43.199219 C 12.832031 44.902344 14.21875 46.285156 15.917969 46.285156 C 17.621094 46.285156 19.003906 44.902344 19.003906 43.199219 C 19.003906 42.636719 18.851562 42.113281 18.589844 41.65625 L 36.390625 41.65625 C 36.128906 42.113281 35.976562 42.636719 35.976562 43.199219 C 35.976562 44.902344 37.359375 46.285156 39.0625 46.285156 C 40.761719 46.285156 42.148438 44.902344 42.148438 43.199219 C 42.148438 42.636719 41.996094 42.113281 41.730469 41.65625 L 44.460938 41.65625 C 45.738281 41.65625 46.777344 40.617188 46.777344 39.34375 C 46.777344 38.277344 46.050781 37.378906 45.070312 37.109375 "/>
</g>
<path style=" stroke:none;fill-rule:nonzero;fill:rgb(0%,29.019165%,67.83905%);fill-opacity:1;" d="M 2.03125 35.484375 L 5.890625 35.484375 L 5.890625 33.941406 L 2.03125 33.941406 L 2.03125 35.484375 "/>
<g clip-path="url(#clip2)" clip-rule="nonzero">
<path style=" stroke:none;fill-rule:nonzero;fill:rgb(0%,29.019165%,67.83905%);fill-opacity:1;" d="M 0.488281 38.570312 L 4.347656 38.570312 L 4.347656 37.027344 L 0.488281 37.027344 L 0.488281 38.570312 "/>
</g>
<path style=" stroke:none;fill-rule:nonzero;fill:rgb(0%,29.019165%,67.83905%);fill-opacity:1;" d="M 3.574219 32.398438 L 5.890625 32.398438 L 5.890625 30.855469 L 3.574219 30.855469 L 3.574219 32.398438 "/>
<path style=" stroke:none;fill-rule:nonzero;fill:rgb(0%,29.019165%,67.83905%);fill-opacity:1;" d="M 29.804688 13.113281 L 19.003906 13.113281 L 19.003906 14.65625 L 29.804688 14.65625 L 29.804688 13.113281 "/>
<path style=" stroke:none;fill-rule:nonzero;fill:rgb(0%,29.019165%,67.83905%);fill-opacity:1;" d="M 29.804688 32.398438 L 19.003906 32.398438 L 19.003906 33.941406 L 29.804688 33.941406 L 29.804688 32.398438 "/>
<path style=" stroke:none;fill-rule:nonzero;fill:rgb(0%,29.019165%,67.83905%);fill-opacity:1;" d="M 24.402344 23.144531 C 23.128906 23.144531 22.089844 22.105469 22.089844 20.828125 C 22.089844 19.550781 23.128906 18.515625 24.402344 18.515625 C 25.679688 18.515625 26.71875 19.550781 26.71875 20.828125 C 26.71875 22.105469 25.679688 23.144531 24.402344 23.144531 Z M 28.261719 20.828125 C 28.261719 18.703125 26.53125 16.972656 24.402344 16.972656 C 22.277344 16.972656 20.546875 18.703125 20.546875 20.828125 C 20.546875 22.957031 22.277344 24.6875 24.402344 24.6875 C 26.53125 24.6875 28.261719 22.957031 28.261719 20.828125 "/>
<path style=" stroke:none;fill-rule:nonzero;fill:rgb(0%,29.019165%,67.83905%);fill-opacity:1;" d="M 23.632812 29.3125 L 19.003906 29.3125 L 19.003906 30.855469 L 23.632812 30.855469 L 23.632812 29.3125 "/>
<path style=" stroke:none;fill-rule:nonzero;fill:rgb(0%,29.019165%,67.83905%);fill-opacity:1;" d="M 25.175781 30.855469 L 29.804688 30.855469 L 29.804688 29.3125 L 25.175781 29.3125 L 25.175781 30.855469 "/>
<g clip-path="url(#clip3)" clip-rule="nonzero">
<path style=" stroke:none;fill-rule:nonzero;fill:rgb(0%,29.019165%,67.83905%);fill-opacity:1;" d="M 41.375 7.613281 C 40.851562 6.691406 40.082031 5.925781 39.160156 5.398438 C 40.082031 4.875 40.851562 4.105469 41.375 3.183594 C 41.902344 4.105469 42.667969 4.875 43.589844 5.398438 C 42.667969 5.925781 41.902344 6.691406 41.375 7.613281 Z M 46.503906 4.628906 C 44.101562 4.628906 42.148438 2.671875 42.148438 0.269531 L 42.148438 0 L 40.605469 0 L 40.605469 0.269531 C 40.605469 2.671875 38.648438 4.628906 36.246094 4.628906 L 35.976562 4.628906 L 35.976562 6.171875 L 36.246094 6.171875 C 38.648438 6.171875 40.605469 8.125 40.605469 10.53125 L 40.605469 10.800781 L 42.148438 10.800781 L 42.148438 10.53125 C 42.148438 8.125 44.101562 6.171875 46.503906 6.171875 L 46.777344 6.171875 L 46.777344 4.628906 L 46.503906 4.628906 "/>
</g>
<path style=" stroke:none;fill-rule:nonzero;fill:rgb(0%,29.019165%,67.83905%);fill-opacity:1;" d="M 24.402344 0 L 22.859375 0 L 22.859375 2.3125 L 24.402344 2.3125 L 24.402344 0 "/>
<path style=" stroke:none;fill-rule:nonzero;fill:rgb(0%,29.019165%,67.83905%);fill-opacity:1;" d="M 26.71875 3.855469 L 26.71875 2.3125 L 24.402344 2.3125 L 24.402344 3.855469 L 26.71875 3.855469 "/>
<path style=" stroke:none;fill-rule:nonzero;fill:rgb(0%,29.019165%,67.83905%);fill-opacity:1;" d="M 22.859375 6.171875 L 24.402344 6.171875 L 24.402344 3.855469 L 22.859375 3.855469 L 22.859375 6.171875 "/>
<path style=" stroke:none;fill-rule:nonzero;fill:rgb(0%,29.019165%,67.83905%);fill-opacity:1;" d="M 22.859375 2.3125 L 20.546875 2.3125 L 20.546875 3.855469 L 22.859375 3.855469 L 22.859375 2.3125 "/>
<path style=" stroke:none;fill-rule:nonzero;fill:rgb(0%,29.019165%,67.83905%);fill-opacity:1;" d="M 37.519531 13.113281 L 37.519531 14.65625 L 39.0625 14.65625 L 39.0625 13.113281 L 37.519531 13.113281 "/>
<path style=" stroke:none;fill-rule:nonzero;fill:rgb(0%,29.019165%,67.83905%);fill-opacity:1;" d="M 32.890625 1.542969 L 31.347656 1.542969 L 31.347656 3.085938 L 32.890625 3.085938 L 32.890625 1.542969 "/>
</g>
</svg>
