<?xml version="1.0" encoding="UTF-8"?>
<svg xmlns="http://www.w3.org/2000/svg" xmlns:xlink="http://www.w3.org/1999/xlink" width="48pt" height="48pt" viewBox="0 0 48 48" version="1.2">
<defs>
<clipPath id="clip1">
  <path d="M 0.488281 28 L 19 28 L 19 47 L 0.488281 47 Z M 0.488281 28 "/>
</clipPath>
<clipPath id="clip2">
  <path d="M 0.488281 0 L 27 0 L 27 27 L 0.488281 27 Z M 0.488281 0 "/>
</clipPath>
</defs>
<g id="surface1">
<path style=" stroke:none;fill-rule:nonzero;fill:rgb(0%,29.019165%,67.83905%);fill-opacity:1;" d="M 46.019531 8.773438 L 41.105469 13.859375 C 40.40625 14.5625 39.351562 14.5625 38.648438 13.859375 L 33.5625 8.773438 C 32.859375 8.070312 32.859375 7.019531 33.5625 6.316406 L 38.648438 1.226562 C 35.140625 0 29.527344 2.632812 27.070312 4.914062 C 23.5625 8.421875 25.492188 13.335938 29.527344 17.546875 C 33.5625 21.753906 38.648438 23.511719 42.160156 20 C 44.617188 17.71875 47.246094 12.105469 46.019531 8.773438 Z M 46.019531 8.773438 "/>
<g clip-path="url(#clip1)" clip-rule="nonzero">
<path style=" stroke:none;fill-rule:nonzero;fill:rgb(0%,29.019165%,67.83905%);fill-opacity:1;" d="M 9.527344 28.949219 C 4.613281 28.949219 0.753906 32.808594 0.753906 37.722656 C 0.753906 42.632812 4.613281 46.492188 9.527344 46.492188 C 14.4375 46.492188 18.296875 42.632812 18.296875 37.722656 C 18.296875 32.808594 14.4375 28.949219 9.527344 28.949219 Z M 12.859375 41.054688 L 8.296875 42.285156 L 4.964844 38.949219 L 6.191406 34.386719 L 10.753906 33.160156 L 14.085938 36.492188 Z M 12.859375 41.054688 "/>
</g>
<path style=" stroke:none;fill-rule:nonzero;fill:rgb(0%,29.019165%,67.83905%);fill-opacity:1;" d="M 25.84375 21.054688 C 27.246094 19.824219 29.351562 19.824219 30.753906 21.054688 L 31.457031 21.753906 C 31.457031 21.753906 31.457031 21.753906 31.632812 21.929688 L 37.246094 16.316406 L 31.105469 10.175781 L 23.210938 18.070312 Z M 25.84375 21.054688 "/>
<path style=" stroke:none;fill-rule:nonzero;fill:rgb(0%,29.019165%,67.83905%);fill-opacity:1;" d="M 21.632812 31.40625 L 21.105469 30.703125 C 19.703125 29.300781 19.703125 27.195312 20.929688 25.792969 L 17.945312 22.808594 L 10.050781 30.703125 L 16.191406 36.84375 L 21.632812 31.40625 C 21.808594 31.40625 21.808594 31.40625 21.632812 31.40625 Z M 21.632812 31.40625 "/>
<g clip-path="url(#clip2)" clip-rule="nonzero">
<path style=" stroke:none;fill-rule:nonzero;fill:rgb(0%,29.019165%,67.83905%);fill-opacity:1;" d="M 26.367188 24.210938 L 9.699219 7.542969 L 10.050781 4.914062 L 3.035156 0.878906 L 0.753906 3.15625 L 4.789062 10.175781 L 7.421875 9.824219 L 24.085938 26.492188 Z M 26.367188 24.210938 "/>
</g>
<path style=" stroke:none;fill-rule:nonzero;fill:rgb(0%,29.019165%,67.83905%);fill-opacity:1;" d="M 44.964844 37.898438 L 35.492188 28.421875 C 34.613281 27.546875 33.386719 27.195312 32.332031 27.546875 L 30.054688 25.441406 C 30.578125 24.738281 30.578125 23.6875 30.054688 23.160156 L 29.351562 22.457031 C 28.648438 21.753906 27.597656 21.753906 26.894531 22.457031 L 22.15625 27.195312 C 21.457031 27.894531 21.457031 28.949219 22.15625 29.652344 L 22.859375 30.351562 C 23.5625 31.054688 24.613281 31.054688 25.140625 30.351562 L 27.246094 32.457031 C 27.070312 33.511719 27.246094 34.738281 28.125 35.617188 L 37.597656 45.089844 C 39.527344 47.019531 42.683594 47.019531 44.617188 45.089844 C 46.894531 42.984375 46.894531 39.828125 44.964844 37.898438 Z M 42.511719 42.632812 C 42.160156 42.984375 41.632812 42.984375 41.28125 42.632812 L 30.929688 32.28125 C 30.578125 31.933594 30.578125 31.40625 30.929688 31.054688 C 31.28125 30.703125 31.808594 30.703125 32.160156 31.054688 L 42.511719 41.40625 C 42.859375 41.757812 42.859375 42.285156 42.511719 42.632812 Z M 42.511719 42.632812 "/>
</g>
</svg>
