<?xml version="1.0" encoding="UTF-8"?>
<svg xmlns="http://www.w3.org/2000/svg" xmlns:xlink="http://www.w3.org/1999/xlink" width="48pt" height="48pt" viewBox="0 0 48 48" version="1.2">
<defs>
<clipPath id="clip1">
  <path d="M 1.921875 1.433594 L 46.003906 1.433594 L 46.003906 45.515625 L 1.921875 45.515625 Z M 1.921875 1.433594 "/>
</clipPath>
</defs>
<g id="surface1">
<g clip-path="url(#clip1)" clip-rule="nonzero">
<path style=" stroke:none;fill-rule:nonzero;fill:rgb(100%,100%,100%);fill-opacity:1;" d="M 23.964844 1.433594 C 11.792969 1.433594 1.921875 11.300781 1.921875 23.472656 C 1.921875 35.644531 11.792969 45.515625 23.964844 45.515625 C 36.136719 45.515625 46.003906 35.644531 46.003906 23.472656 C 46.003906 11.300781 36.136719 1.433594 23.964844 1.433594 Z M 35.601562 33.59375 L 33.835938 35.359375 C 33.523438 35.671875 32.601562 35.867188 32.570312 35.867188 C 26.988281 35.917969 21.613281 33.722656 17.660156 29.773438 C 13.703125 25.8125 11.507812 20.417969 11.566406 14.816406 C 11.566406 14.8125 11.765625 13.917969 12.082031 13.605469 L 13.847656 11.839844 C 14.492188 11.191406 15.734375 10.898438 16.601562 11.1875 L 16.972656 11.3125 C 17.839844 11.601562 18.75 12.5625 18.988281 13.441406 L 19.875 16.703125 C 20.117188 17.585938 19.792969 18.847656 19.148438 19.492188 L 17.96875 20.671875 C 19.125 24.953125 22.484375 28.3125 26.769531 29.472656 L 27.949219 28.292969 C 28.597656 27.648438 29.855469 27.324219 30.738281 27.5625 L 33.996094 28.453125 C 34.878906 28.695312 35.835938 29.601562 36.128906 30.464844 L 36.25 30.84375 C 36.539062 31.710938 36.25 32.949219 35.601562 33.59375 Z M 35.601562 33.59375 "/>
</g>
</g>
</svg>
