<?xml version="1.0" encoding="UTF-8"?>
<svg xmlns="http://www.w3.org/2000/svg" xmlns:xlink="http://www.w3.org/1999/xlink" width="48pt" height="48pt" viewBox="0 0 48 48" version="1.2">
<defs>
<clipPath id="clip1">
  <path d="M 0.488281 19 L 32 19 L 32 47.019531 L 0.488281 47.019531 Z M 0.488281 19 "/>
</clipPath>
<clipPath id="clip2">
  <path d="M 32 16 L 47.507812 16 L 47.507812 47.019531 L 32 47.019531 Z M 32 16 "/>
</clipPath>
<clipPath id="clip3">
  <path d="M 0.488281 4 L 32 4 L 32 18 L 0.488281 18 Z M 0.488281 4 "/>
</clipPath>
</defs>
<g id="surface1">
<path style=" stroke:none;fill-rule:nonzero;fill:rgb(0%,29.019165%,67.83905%);fill-opacity:1;" d="M 6.976562 38.914062 L 13.460938 38.914062 L 13.460938 40.535156 L 6.976562 40.535156 Z M 6.976562 35.671875 L 11.839844 35.671875 L 11.839844 37.292969 L 6.976562 37.292969 Z M 9.40625 26.753906 L 10.21875 26.753906 L 10.21875 29.996094 L 9.40625 29.996094 C 8.515625 29.996094 7.785156 29.265625 7.785156 28.375 C 7.785156 27.480469 8.515625 26.753906 9.40625 26.753906 Z M 11.839844 30.5 L 11.839844 26.984375 C 12.867188 27.277344 13.792969 27.839844 14.5 28.617188 L 12.199219 30.921875 C 12.074219 30.765625 11.933594 30.621094 11.777344 30.5 Z M 15.800781 31.050781 L 15.886719 31.394531 C 15.929688 31.570312 15.996094 31.730469 16.074219 31.886719 L 13.460938 33.847656 C 13.207031 33.449219 13.019531 33.011719 12.867188 32.546875 L 15.414062 30 C 15.574219 30.335938 15.710938 30.679688 15.800781 31.050781 Z M 18.230469 33.234375 L 16.722656 36.253906 C 15.902344 36.023438 15.160156 35.621094 14.527344 35.070312 L 17.265625 33.023438 C 17.5625 33.15625 17.886719 33.234375 18.230469 33.234375 Z M 19.914062 33.492188 C 20.691406 33.726562 21.398438 34.125 22 34.65625 L 18.972656 36.59375 C 18.792969 36.539062 18.605469 36.507812 18.414062 36.492188 Z M 23.328125 36.375 L 23.828125 37.378906 C 24.023438 37.765625 24.054688 38.203125 23.917969 38.617188 C 23.777344 39.027344 23.488281 39.359375 23.105469 39.554688 C 22.878906 39.664062 22.628906 39.722656 22.378906 39.722656 C 21.761719 39.722656 21.203125 39.378906 20.929688 38.828125 L 20.429688 37.828125 C 20.394531 37.765625 20.359375 37.710938 20.324219 37.652344 L 23.054688 35.90625 C 23.148438 36.0625 23.246094 36.210938 23.328125 36.375 Z M 5.355469 42.15625 L 26.433594 42.15625 L 26.433594 24.320312 L 5.355469 24.320312 L 5.355469 42.15625 "/>
<path style=" stroke:none;fill-rule:nonzero;fill:rgb(0%,29.019165%,67.83905%);fill-opacity:1;" d="M 41.023438 0 L 32.917969 0 L 32.917969 3.242188 L 41.023438 3.242188 L 41.023438 0 "/>
<g clip-path="url(#clip1)" clip-rule="nonzero">
<path style=" stroke:none;fill-rule:nonzero;fill:rgb(0%,29.019165%,67.83905%);fill-opacity:1;" d="M 3.734375 22.699219 L 28.054688 22.699219 L 28.054688 43.777344 L 3.734375 43.777344 Z M 0.488281 44.589844 C 0.488281 45.929688 1.578125 47.019531 2.921875 47.019531 L 28.863281 47.019531 C 30.207031 47.019531 31.296875 45.929688 31.296875 44.589844 L 31.296875 19.457031 L 0.488281 19.457031 L 0.488281 44.589844 "/>
</g>
<g clip-path="url(#clip2)" clip-rule="nonzero">
<path style=" stroke:none;fill-rule:nonzero;fill:rgb(0%,29.019165%,67.83905%);fill-opacity:1;" d="M 32.917969 16.214844 L 32.917969 19.457031 L 45.890625 19.457031 L 45.890625 42.15625 L 32.917969 42.15625 L 32.917969 44.589844 C 32.917969 45.503906 32.601562 46.339844 32.085938 47.019531 L 45.078125 47.019531 C 46.421875 47.019531 47.511719 45.929688 47.511719 44.589844 L 47.511719 16.214844 L 32.917969 16.214844 "/>
</g>
<path style=" stroke:none;fill-rule:nonzero;fill:rgb(0%,29.019165%,67.83905%);fill-opacity:1;" d="M 32.917969 14.59375 L 46.925781 14.59375 L 41.363281 4.863281 L 32.578125 4.863281 L 32.011719 5.851562 C 32.582031 6.738281 32.917969 7.789062 32.917969 8.917969 L 32.917969 14.59375 "/>
<path style=" stroke:none;fill-rule:nonzero;fill:rgb(0%,29.019165%,67.83905%);fill-opacity:1;" d="M 36.972656 38.101562 C 35.277344 38.101562 33.789062 37.238281 32.917969 35.925781 L 32.917969 40.535156 L 44.265625 40.535156 L 44.265625 21.078125 L 32.917969 21.078125 L 32.917969 29.894531 C 34.300781 26.628906 36.972656 23.511719 36.972656 23.511719 C 36.972656 23.511719 41.835938 29.183594 41.835938 33.238281 C 41.835938 35.925781 39.65625 38.101562 36.972656 38.101562 "/>
<path style=" stroke:none;fill-rule:nonzero;fill:rgb(0%,29.019165%,67.83905%);fill-opacity:1;" d="M 11.839844 8.105469 L 3.734375 8.105469 L 3.734375 11.351562 L 11.839844 11.351562 L 11.839844 8.105469 "/>
<g clip-path="url(#clip3)" clip-rule="nonzero">
<path style=" stroke:none;fill-rule:nonzero;fill:rgb(0%,29.019165%,67.83905%);fill-opacity:1;" d="M 27.242188 4.863281 L 20.144531 4.863281 C 18.523438 4.863281 17.0625 5.828125 16.421875 7.320312 L 14.390625 12.050781 L 16.246094 14.523438 L 18.726562 8.316406 C 18.972656 7.699219 19.570312 7.296875 20.234375 7.296875 L 27.242188 7.296875 C 28.140625 7.296875 28.863281 8.019531 28.863281 8.917969 L 28.863281 15.402344 L 14.898438 15.429688 L 13.054688 12.972656 L 3.3125 12.972656 L 1.023438 15.832031 C 0.679688 16.261719 0.488281 16.800781 0.488281 17.351562 L 0.488281 17.835938 L 31.296875 17.835938 L 31.296875 8.917969 C 31.296875 6.683594 29.480469 4.863281 27.242188 4.863281 "/>
</g>
</g>
</svg>
