<?xml version="1.0" encoding="UTF-8"?>
<svg xmlns="http://www.w3.org/2000/svg" xmlns:xlink="http://www.w3.org/1999/xlink" width="48pt" height="48pt" viewBox="0 0 48 48" version="1.2">
<defs>
<clipPath id="clip1">
  <path d="M 0.488281 0 L 47.507812 0 L 47.507812 47.019531 L 0.488281 47.019531 Z M 0.488281 0 "/>
</clipPath>
<clipPath id="clip2">
  <path d="M 40 42 L 46.738281 42 L 46.738281 46.25 L 40 46.25 Z M 40 42 "/>
</clipPath>
<clipPath id="clip3">
  <path d="M 23 42 L 30 42 L 30 46.25 L 23 46.25 Z M 23 42 "/>
</clipPath>
<clipPath id="clip4">
  <path d="M 1.1875 0.699219 L 36 0.699219 L 36 41 L 1.1875 41 Z M 1.1875 0.699219 "/>
</clipPath>
<clipPath id="clip5">
  <path d="M 23 25 L 46.738281 25 L 46.738281 44 L 23 44 Z M 23 25 "/>
</clipPath>
</defs>
<g id="surface1">
<g clip-path="url(#clip1)" clip-rule="nonzero">
<path style=" stroke:none;fill-rule:nonzero;fill:rgb(100%,100%,100%);fill-opacity:1;" d="M 0.488281 0 L 47.511719 0 L 47.511719 54.367188 L 0.488281 54.367188 Z M 0.488281 0 "/>
<path style=" stroke:none;fill-rule:nonzero;fill:rgb(100%,100%,100%);fill-opacity:1;" d="M 0.488281 0 L 47.511719 0 L 47.511719 47.019531 L 0.488281 47.019531 Z M 0.488281 0 "/>
<path style=" stroke:none;fill-rule:nonzero;fill:rgb(100%,100%,100%);fill-opacity:1;" d="M 0.488281 0 L 47.511719 0 L 47.511719 47.019531 L 0.488281 47.019531 Z M 0.488281 0 "/>
</g>
<g clip-path="url(#clip2)" clip-rule="nonzero">
<path style=" stroke:none;fill-rule:nonzero;fill:rgb(0%,29.019165%,67.83905%);fill-opacity:1;" d="M 44.917969 46.25 L 42.183594 46.25 C 41.089844 46.25 40.363281 45.519531 40.363281 44.425781 L 40.363281 42.605469 L 46.738281 42.605469 L 46.738281 44.425781 C 46.738281 45.519531 46.011719 46.25 44.917969 46.25 Z M 44.917969 46.25 "/>
</g>
<g clip-path="url(#clip3)" clip-rule="nonzero">
<path style=" stroke:none;fill-rule:nonzero;fill:rgb(0%,29.019165%,67.83905%);fill-opacity:1;" d="M 27.605469 46.25 L 24.875 46.25 C 23.78125 46.25 23.050781 45.519531 23.050781 44.425781 L 23.050781 42.605469 L 29.429688 42.605469 L 29.429688 44.425781 C 29.429688 45.519531 28.699219 46.25 27.605469 46.25 Z M 27.605469 46.25 "/>
</g>
<path style=" stroke:none;fill-rule:nonzero;fill:rgb(0%,29.019165%,67.83905%);fill-opacity:1;" d="M 8.476562 44.425781 L 4.832031 44.425781 C 3.28125 44.425781 2.097656 43.242188 2.097656 41.695312 L 2.097656 37.777344 L 11.207031 40.054688 L 11.207031 41.695312 C 11.207031 43.242188 10.023438 44.425781 8.476562 44.425781 Z M 8.476562 44.425781 "/>
<g clip-path="url(#clip4)" clip-rule="nonzero">
<path style=" stroke:none;fill-rule:nonzero;fill:rgb(0%,29.019165%,67.83905%);fill-opacity:1;" d="M 21.230469 35.132812 C 21.230469 34.316406 21.414062 33.402344 21.6875 32.675781 L 23.144531 29.394531 L 24.054688 27.390625 C 24.238281 27.027344 24.417969 26.660156 24.691406 26.390625 L 7.566406 26.390625 C 6.5625 26.390625 5.742188 25.570312 5.742188 24.566406 L 5.742188 12.542969 C 5.742188 11.539062 6.5625 10.71875 7.566406 10.71875 L 29.429688 10.71875 C 30.429688 10.71875 31.25 11.539062 31.25 12.542969 L 31.25 23.472656 L 35.804688 23.472656 L 35.804688 10.71875 C 35.804688 5.160156 31.34375 0.699219 25.785156 0.699219 L 11.207031 0.699219 C 5.652344 0.699219 1.1875 5.160156 1.1875 10.71875 L 1.1875 36.226562 C 1.1875 38.777344 3.191406 40.78125 5.742188 40.78125 L 21.230469 40.78125 Z M 11.207031 5.253906 C 11.207031 4.707031 11.574219 4.34375 12.121094 4.34375 L 25.785156 4.34375 C 26.332031 4.34375 26.695312 4.707031 26.695312 5.253906 L 26.695312 7.074219 C 26.695312 7.621094 26.332031 7.984375 25.785156 7.984375 L 12.121094 7.984375 C 11.574219 7.984375 11.207031 7.621094 11.207031 7.074219 Z M 8.929688 36.226562 C 7.199219 36.226562 5.742188 34.769531 5.742188 33.039062 C 5.742188 31.308594 7.199219 29.851562 8.929688 29.851562 C 10.664062 29.851562 12.121094 31.308594 12.121094 33.039062 C 12.121094 34.769531 10.664062 36.226562 8.929688 36.226562 Z M 8.929688 36.226562 "/>
</g>
<g clip-path="url(#clip5)" clip-rule="nonzero">
<path style=" stroke:none;fill-rule:nonzero;fill:rgb(0%,29.019165%,67.83905%);fill-opacity:1;" d="M 46.375 33.3125 L 44.003906 28.027344 C 43.1875 26.390625 41.636719 25.296875 39.816406 25.296875 L 29.976562 25.296875 C 28.152344 25.296875 26.605469 26.296875 25.785156 28.027344 L 24.875 30.03125 L 23.417969 33.3125 C 23.234375 33.859375 23.050781 34.496094 23.050781 35.132812 L 23.050781 43.515625 L 46.738281 43.515625 L 46.738281 35.132812 C 46.738281 34.496094 46.648438 33.949219 46.375 33.3125 Z M 28.519531 39.871094 C 27.515625 39.871094 26.695312 39.050781 26.695312 38.050781 C 26.695312 37.046875 27.515625 36.226562 28.519531 36.226562 C 29.519531 36.226562 30.339844 37.046875 30.339844 38.050781 C 30.339844 39.050781 29.519531 39.871094 28.519531 39.871094 Z M 41.273438 39.871094 C 40.269531 39.871094 39.449219 39.050781 39.449219 38.050781 C 39.449219 37.046875 40.269531 36.226562 41.273438 36.226562 C 42.273438 36.226562 43.09375 37.046875 43.09375 38.050781 C 43.09375 39.050781 42.273438 39.871094 41.273438 39.871094 Z M 43.824219 33.496094 C 43.824219 34.042969 43.460938 34.40625 42.914062 34.40625 L 27.0625 34.40625 C 26.515625 34.40625 26.148438 34.042969 26.148438 33.496094 L 26.148438 32.035156 C 26.148438 31.765625 26.242188 31.492188 26.332031 31.308594 L 27.515625 28.757812 C 27.972656 27.753906 28.972656 27.117188 30.066406 27.117188 L 39.90625 27.117188 C 41 27.117188 42 27.753906 42.457031 28.757812 L 43.640625 31.308594 C 43.730469 31.582031 43.824219 31.765625 43.824219 32.035156 Z M 43.824219 33.496094 "/>
</g>
</g>
</svg>
