<?xml version="1.0" encoding="UTF-8"?>
<svg xmlns="http://www.w3.org/2000/svg" xmlns:xlink="http://www.w3.org/1999/xlink" width="48pt" height="48pt" viewBox="0 0 48 48" version="1.2">
<defs>
<clipPath id="clip1">
  <path d="M 0.488281 0 L 47.507812 0 L 47.507812 12 L 0.488281 12 Z M 0.488281 0 "/>
</clipPath>
</defs>
<g id="surface1">
<path style=" stroke:none;fill-rule:nonzero;fill:rgb(0%,29.019165%,67.83905%);fill-opacity:1;" d="M 24 29 C 24 29.386719 23.925781 29.753906 23.777344 30.109375 C 23.632812 30.464844 23.421875 30.78125 23.152344 31.050781 C 22.878906 31.324219 22.566406 31.535156 22.210938 31.679688 C 21.855469 31.828125 21.484375 31.902344 21.101562 31.902344 C 20.714844 31.902344 20.34375 31.828125 19.988281 31.679688 C 19.632812 31.535156 19.320312 31.324219 19.050781 31.050781 C 18.777344 30.78125 18.566406 30.464844 18.421875 30.109375 C 18.273438 29.753906 18.199219 29.386719 18.199219 29 C 18.199219 28.617188 18.273438 28.246094 18.421875 27.890625 C 18.566406 27.535156 18.777344 27.222656 19.050781 26.949219 C 19.320312 26.679688 19.632812 26.46875 19.988281 26.320312 C 20.34375 26.175781 20.714844 26.101562 21.101562 26.101562 C 21.484375 26.101562 21.855469 26.175781 22.210938 26.320312 C 22.566406 26.46875 22.878906 26.679688 23.152344 26.949219 C 23.421875 27.222656 23.632812 27.535156 23.777344 27.890625 C 23.925781 28.246094 24 28.617188 24 29 Z M 24 29 "/>
<path style=" stroke:none;fill-rule:nonzero;fill:rgb(0%,29.019165%,67.83905%);fill-opacity:1;" d="M 6.597656 25.496094 C 6.582031 26.5625 6.664062 27.621094 6.839844 28.671875 C 7.011719 29.722656 7.28125 30.753906 7.640625 31.757812 C 8 32.761719 8.445312 33.722656 8.980469 34.648438 C 9.511719 35.570312 10.121094 36.441406 10.8125 37.253906 C 11.5 38.070312 12.257812 38.816406 13.078125 39.492188 C 13.902344 40.171875 14.777344 40.769531 15.710938 41.292969 C 16.640625 41.8125 17.609375 42.246094 18.617188 42.59375 C 19.625 42.9375 20.65625 43.191406 21.710938 43.355469 C 22.324219 43.433594 22.9375 43.480469 23.554688 43.496094 C 24.175781 43.511719 24.789062 43.492188 25.40625 43.445312 C 26.023438 43.394531 26.632812 43.308594 27.238281 43.195312 C 27.847656 43.078125 28.445312 42.929688 29.035156 42.75 C 29.628906 42.574219 30.207031 42.363281 30.777344 42.121094 C 31.34375 41.878906 31.898438 41.609375 32.4375 41.308594 C 32.980469 41.011719 33.5 40.683594 34.007812 40.328125 C 34.511719 39.972656 34.996094 39.589844 35.460938 39.183594 C 35.925781 38.777344 36.367188 38.347656 36.785156 37.890625 C 37.203125 37.4375 37.597656 36.960938 37.964844 36.46875 C 38.335938 35.972656 38.675781 35.457031 38.988281 34.925781 C 39.300781 34.394531 39.585938 33.84375 39.84375 33.28125 C 40.097656 32.71875 40.324219 32.144531 40.515625 31.558594 C 40.710938 30.972656 40.875 30.378906 41.003906 29.773438 C 41.136719 29.171875 41.234375 28.5625 41.300781 27.949219 C 41.367188 27.335938 41.398438 26.71875 41.402344 26.101562 L 41.402344 14.5 L 6.597656 14.5 Z M 34.179688 17.402344 L 34.207031 17.402344 C 34.335938 17.402344 34.460938 17.417969 34.582031 17.453125 C 34.703125 17.488281 34.820312 17.535156 34.929688 17.601562 C 35.039062 17.664062 35.136719 17.742188 35.226562 17.832031 C 35.316406 17.921875 35.390625 18.023438 35.453125 18.132812 C 35.515625 18.246094 35.566406 18.359375 35.597656 18.484375 C 35.628906 18.605469 35.644531 18.730469 35.644531 18.859375 C 35.644531 18.984375 35.625 19.109375 35.59375 19.230469 C 35.558594 19.355469 35.511719 19.46875 35.445312 19.578125 C 35.382812 19.691406 35.304688 19.789062 35.214844 19.878906 C 35.125 19.96875 35.027344 20.042969 34.917969 20.109375 C 34.808594 20.171875 34.691406 20.21875 34.566406 20.25 C 34.445312 20.285156 34.320312 20.300781 34.195312 20.300781 C 34.066406 20.300781 33.941406 20.285156 33.820312 20.25 C 33.695312 20.21875 33.582031 20.171875 33.472656 20.109375 C 33.359375 20.042969 33.261719 19.96875 33.171875 19.878906 C 33.082031 19.789062 33.003906 19.691406 32.941406 19.578125 C 32.875 19.46875 32.828125 19.355469 32.792969 19.230469 C 32.761719 19.109375 32.746094 18.984375 32.742188 18.859375 C 32.742188 18.730469 32.757812 18.605469 32.792969 18.484375 C 32.824219 18.359375 32.871094 18.246094 32.933594 18.132812 C 32.996094 18.023438 33.070312 17.921875 33.160156 17.832031 C 33.25 17.742188 33.347656 17.664062 33.457031 17.601562 C 33.566406 17.535156 33.683594 17.488281 33.804688 17.453125 C 33.929688 17.417969 34.050781 17.402344 34.179688 17.402344 Z M 24 23.199219 C 24.476562 23.199219 24.949219 23.246094 25.414062 23.339844 C 25.882812 23.433594 26.335938 23.570312 26.773438 23.753906 C 27.214844 23.933594 27.632812 24.160156 28.027344 24.421875 C 28.425781 24.6875 28.789062 24.988281 29.125 25.324219 C 29.464844 25.660156 29.765625 26.027344 30.027344 26.421875 C 30.292969 26.820312 30.515625 27.238281 30.699219 27.675781 C 30.878906 28.117188 31.019531 28.570312 31.109375 29.035156 C 31.203125 29.503906 31.25 29.976562 31.25 30.449219 C 31.25 30.925781 31.203125 31.398438 31.109375 31.867188 C 31.019531 32.332031 30.878906 32.785156 30.699219 33.226562 C 30.515625 33.664062 30.292969 34.082031 30.027344 34.480469 C 29.765625 34.875 29.464844 35.242188 29.125 35.578125 C 28.789062 35.914062 28.425781 36.214844 28.027344 36.480469 C 27.632812 36.742188 27.214844 36.96875 26.773438 37.148438 C 26.335938 37.332031 25.882812 37.46875 25.414062 37.5625 C 24.949219 37.65625 24.476562 37.703125 24 37.703125 C 23.523438 37.703125 23.050781 37.65625 22.585938 37.5625 C 22.117188 37.46875 21.664062 37.332031 21.226562 37.148438 C 20.785156 36.96875 20.367188 36.742188 19.972656 36.480469 C 19.574219 36.214844 19.210938 35.914062 18.875 35.578125 C 18.535156 35.242188 18.234375 34.875 17.972656 34.480469 C 17.707031 34.082031 17.484375 33.664062 17.300781 33.226562 C 17.121094 32.785156 16.980469 32.332031 16.890625 31.867188 C 16.796875 31.398438 16.75 30.925781 16.75 30.449219 C 16.75 29.976562 16.796875 29.503906 16.890625 29.035156 C 16.980469 28.570312 17.121094 28.117188 17.300781 27.675781 C 17.484375 27.238281 17.707031 26.820312 17.972656 26.421875 C 18.234375 26.027344 18.535156 25.660156 18.875 25.324219 C 19.210938 24.988281 19.574219 24.6875 19.972656 24.421875 C 20.367188 24.160156 20.785156 23.933594 21.226562 23.753906 C 21.664062 23.570312 22.117188 23.433594 22.585938 23.339844 C 23.050781 23.246094 23.523438 23.199219 24 23.199219 Z M 24 23.199219 "/>
<g clip-path="url(#clip1)" clip-rule="nonzero">
<path style=" stroke:none;fill-rule:nonzero;fill:rgb(0%,29.019165%,67.83905%);fill-opacity:1;" d="M 2.25 0 L 45.75 0 C 45.941406 0 46.128906 0.0351562 46.304688 0.109375 C 46.484375 0.183594 46.640625 0.289062 46.777344 0.425781 C 46.914062 0.5625 47.015625 0.71875 47.089844 0.894531 C 47.164062 1.074219 47.199219 1.257812 47.199219 1.449219 L 47.199219 10.148438 C 47.199219 10.34375 47.164062 10.527344 47.089844 10.707031 C 47.015625 10.882812 46.914062 11.039062 46.777344 11.175781 C 46.640625 11.3125 46.484375 11.417969 46.304688 11.488281 C 46.128906 11.5625 45.941406 11.601562 45.75 11.601562 L 2.25 11.601562 C 2.058594 11.601562 1.871094 11.5625 1.695312 11.488281 C 1.515625 11.417969 1.359375 11.3125 1.222656 11.175781 C 1.085938 11.039062 0.984375 10.882812 0.910156 10.707031 C 0.835938 10.527344 0.800781 10.34375 0.800781 10.148438 L 0.800781 1.449219 C 0.800781 1.257812 0.835938 1.074219 0.910156 0.894531 C 0.984375 0.71875 1.085938 0.5625 1.222656 0.425781 C 1.359375 0.289062 1.515625 0.183594 1.695312 0.109375 C 1.871094 0.0351562 2.058594 0 2.25 0 Z M 2.25 0 "/>
</g>
</g>
</svg>
