<?xml version="1.0" encoding="UTF-8"?>
<svg xmlns="http://www.w3.org/2000/svg" xmlns:xlink="http://www.w3.org/1999/xlink" width="48pt" height="48pt" viewBox="0 0 48 48" version="1.2">
<defs>
<clipPath id="clip1">
  <path d="M 2 2 L 46 2 L 46 45.679688 L 2 45.679688 Z M 2 2 "/>
</clipPath>
</defs>
<g id="surface1">
<g clip-path="url(#clip1)" clip-rule="nonzero">
<path style=" stroke:none;fill-rule:nonzero;fill:rgb(100%,100%,100%);fill-opacity:1;" d="M 39.132812 8.390625 C 34.617188 3.867188 28.457031 1.585938 21.988281 2.105469 C 13.296875 2.804688 5.675781 8.859375 3.125 17.210938 C 1.300781 23.179688 2.066406 29.410156 5.035156 34.554688 L 2.222656 43.898438 C 1.953125 44.796875 2.773438 45.640625 3.675781 45.398438 L 13.445312 42.777344 C 16.609375 44.507812 20.167969 45.417969 23.796875 45.417969 L 23.804688 45.417969 C 32.902344 45.417969 41.308594 39.847656 44.214844 31.214844 C 47.050781 22.800781 44.953125 14.226562 39.132812 8.390625 Z M 34.40625 31.464844 C 33.953125 32.730469 31.746094 33.953125 30.75 34.039062 C 29.757812 34.132812 28.828125 34.492188 24.253906 32.6875 C 18.753906 30.515625 15.28125 24.867188 15.011719 24.503906 C 14.738281 24.144531 12.800781 21.566406 12.800781 18.902344 C 12.800781 16.234375 14.199219 14.921875 14.695312 14.382812 C 15.191406 13.839844 15.777344 13.703125 16.140625 13.703125 C 16.5 13.703125 16.863281 13.703125 17.175781 13.71875 C 17.5625 13.734375 17.992188 13.753906 18.394531 14.652344 C 18.878906 15.726562 19.929688 18.40625 20.0625 18.675781 C 20.199219 18.949219 20.289062 19.265625 20.109375 19.625 C 19.929688 19.988281 19.839844 20.210938 19.570312 20.53125 C 19.296875 20.847656 19 21.234375 18.757812 21.480469 C 18.488281 21.746094 18.203125 22.042969 18.519531 22.585938 C 18.835938 23.125 19.921875 24.902344 21.53125 26.335938 C 23.597656 28.183594 25.339844 28.753906 25.882812 29.027344 C 26.425781 29.296875 26.738281 29.253906 27.054688 28.890625 C 27.371094 28.53125 28.410156 27.308594 28.769531 26.765625 C 29.128906 26.222656 29.492188 26.316406 29.988281 26.496094 C 30.484375 26.675781 33.144531 27.988281 33.683594 28.257812 C 34.226562 28.53125 34.585938 28.664062 34.722656 28.890625 C 34.855469 29.113281 34.855469 30.199219 34.40625 31.464844 Z M 34.40625 31.464844 "/>
</g>
</g>
</svg>
